<svg xmlns="http://www.w3.org/2000/svg" viewBox="0 0 283.84 1225.94"><defs><style>.cls-1,.cls-20,.cls-55,.cls-9{font-size:29.45px;}.cls-1,.cls-32,.cls-36,.cls-39,.cls-57,.cls-61,.cls-7,.cls-81{fill:#372613;}.cls-1,.cls-32,.cls-36,.cls-39,.cls-52,.cls-57,.cls-61,.cls-7,.cls-81{font-family:BebasNeueBold, Bebas Neue;}.cls-2,.cls-3,.cls-4{font-size:28px;}.cls-2,.cls-3,.cls-4,.cls-44,.cls-45,.cls-46,.cls-47,.cls-5,.cls-50,.cls-6{font-family:Bebas-Regular, Bebas;}.cls-2{letter-spacing:0em;}.cls-3{letter-spacing:0em;}.cls-5,.cls-51{font-size:16.84px;}.cls-21,.cls-22,.cls-30,.cls-31,.cls-35,.cls-42,.cls-43,.cls-52,.cls-53,.cls-54,.cls-6,.cls-60,.cls-79,.cls-80,.cls-83,.cls-84{font-size:9px;}.cls-7{font-size:37px;}.cls-8{letter-spacing:-0.02em;}.cls-9{letter-spacing:0em;}.cls-10,.cls-11,.cls-12,.cls-48,.cls-49,.cls-50{font-size:18px;}.cls-11{letter-spacing:-0.04em;}.cls-12{letter-spacing:0em;}.cls-13,.cls-40,.cls-44,.cls-45,.cls-46,.cls-47{font-size:16px;}.cls-14{letter-spacing:-0.01em;}.cls-15{letter-spacing:0em;}.cls-16{letter-spacing:-0.06em;}.cls-17{letter-spacing:-0.04em;}.cls-18,.cls-45{letter-spacing:0em;}.cls-19{letter-spacing:-0.01em;}.cls-22,.cls-48{letter-spacing:0em;}.cls-23{letter-spacing:-0.02em;}.cls-24{letter-spacing:-0.04em;}.cls-25,.cls-40{letter-spacing:-0.01em;}.cls-26{letter-spacing:0em;}.cls-27{font-size:19px;}.cls-28{letter-spacing:-0.02em;}.cls-29{letter-spacing:-0.01em;}.cls-30{letter-spacing:-0.06em;}.cls-31{letter-spacing:0em;}.cls-32{font-size:27px;}.cls-33{letter-spacing:0em;}.cls-34,.cls-35{letter-spacing:-0.01em;}.cls-36{font-size:36px;}.cls-37{letter-spacing:0em;}.cls-38{letter-spacing:0em;}.cls-39{font-size:32px;}.cls-41{letter-spacing:-0.01em;}.cls-42{letter-spacing:-0.01em;}.cls-43{letter-spacing:0em;}.cls-46{letter-spacing:0em;}.cls-47{letter-spacing:-0.02em;}.cls-49{letter-spacing:0em;}.cls-51{letter-spacing:0em;}.cls-53{letter-spacing:0.01em;}.cls-54{letter-spacing:0em;}.cls-55{letter-spacing:-0.01em;}.cls-56{font-size:23px;}.cls-57{font-size:42px;}.cls-58{letter-spacing:0em;}.cls-59{letter-spacing:-0.04em;}.cls-60{letter-spacing:-0.06em;}.cls-61{font-size:35px;}.cls-62{letter-spacing:-0.01em;}.cls-63{letter-spacing:-0.04em;}.cls-64{letter-spacing:0em;}.cls-65{letter-spacing:-0.06em;}.cls-66{letter-spacing:-0.01em;}.cls-67{letter-spacing:-0.05em;}.cls-68{letter-spacing:-0.01em;}.cls-69{letter-spacing:0em;}.cls-70,.cls-71,.cls-72{font-size:20px;}.cls-71{letter-spacing:-0.06em;}.cls-72{letter-spacing:-0.08em;}.cls-73{font-size:24px;}.cls-74{letter-spacing:-0.04em;}.cls-75{letter-spacing:-0.05em;}.cls-76{letter-spacing:0em;}.cls-77{letter-spacing:-0.04em;}.cls-78{letter-spacing:0em;}.cls-79{letter-spacing:-0.05em;}.cls-80{letter-spacing:-0.07em;}.cls-81{font-size:34px;}.cls-82{letter-spacing:-0.02em;}.cls-83{letter-spacing:-0.01em;}.cls-84{letter-spacing:-0.08em;}</style></defs><g id="Layer_2" data-name="Layer 2"><g id="Layer_1-2" data-name="Layer 1"><text class="cls-1" transform="translate(20.19 1220.67)">“<tspan class="cls-2" x="9.78" y="0">n</tspan><tspan class="cls-3" x="22.99" y="0">o</tspan><tspan class="cls-4" x="35.23" y="0">w I miss home!!!”</tspan><tspan class="cls-5" x="203.62" y="0"> </tspan><tspan class="cls-6" x="206.99" y="0">– Umhan R. </tspan></text><text class="cls-7" transform="translate(30.02 182.66)">“Thank <tspan class="cls-8" x="93.16" y="0">y</tspan><tspan x="107.26" y="0">ou</tspan><tspan class="cls-9" x="136.64" y="0"> </tspan><tspan class="cls-10" x="141.2" y="0">for educ</tspan><tspan class="cls-11" x="192.63" y="0">a</tspan><tspan class="cls-12" x="199.27" y="0">ting</tspan><tspan class="cls-13"><tspan x="-5.66" y="18">the </tspan><tspan class="cls-14" x="15.24" y="18">p</tspan><tspan class="cls-15" x="21.06" y="18">as</tspan><tspan class="cls-16" x="33.56" y="18">t</tspan><tspan x="38.3" y="18">, present and future gener</tspan><tspan class="cls-17" x="181.35" y="18">a</tspan><tspan class="cls-15" x="187.25" y="18">tions of</tspan><tspan x="0.31" y="36">the Filipinos all </tspan><tspan class="cls-18" x="88.75" y="36">o</tspan><tspan x="95.07" y="36">ver the worl</tspan><tspan class="cls-19" x="164.4" y="36">d</tspan><tspan x="170.77" y="36">.”</tspan><tspan class="cls-20" x="179.05" y="36"> </tspan><tspan class="cls-21" x="183.62" y="36">– Lut</tspan><tspan class="cls-22" x="199.35" y="36">g</tspan><tspan class="cls-21" x="202.85" y="36">arde E.</tspan></tspan></text><text class="cls-1" transform="translate(36.54 275.86)">“Don’t <tspan class="cls-23" x="66.56" y="0">w</tspan><tspan class="cls-24" x="82.7" y="0">a</tspan><tspan x="93.57" y="0">tch </tspan><tspan class="cls-24" x="132.56" y="0">a</tspan><tspan x="143.43" y="0">t work</tspan><tspan class="cls-13"><tspan x="32.84" y="18">or </tspan><tspan class="cls-25" x="48.08" y="18">y</tspan><tspan x="54.18" y="18">our co</tspan><tspan class="cls-26" x="88.31" y="18">-</tspan><tspan x="92.56" y="18">workers </tspan><tspan class="cls-27" x="141.75" y="18">might</tspan></tspan><tspan class="cls-27"><tspan x="36.26" y="36">see </tspan><tspan class="cls-28" x="60.3" y="36">y</tspan><tspan x="67.54" y="36">ou c</tspan><tspan class="cls-29" x="92.9" y="36">r</tspan><tspan x="100.35" y="36">ying!”</tspan><tspan class="cls-20" x="136.92" y="36"> </tspan><tspan class="cls-21" x="141.49" y="36">– robert </tspan><tspan class="cls-30" x="169.75" y="36">v</tspan><tspan class="cls-31" x="172.82" y="36">.</tspan></tspan></text><text class="cls-32" transform="translate(3.61 457.66)"><tspan class="cls-33">“</tspan><tspan x="8.83" y="0">So proud to be a Filipin</tspan><tspan class="cls-34" x="211.76" y="0">o</tspan><tspan x="222.18" y="0">.”</tspan><tspan class="cls-20" x="236.16" y="0"> </tspan><tspan class="cls-21" x="240.73" y="0">– arshein </tspan><tspan class="cls-35" x="271.37" y="0">d</tspan><tspan class="cls-21" x="274.96" y="0">.</tspan></text><text class="cls-36" transform="translate(58.03 525.19)">“L<tspan class="cls-37" x="24.16" y="0">o</tspan><tspan class="cls-38" x="38.38" y="0">ve this!”</tspan><tspan class="cls-9" x="138.96" y="0"> </tspan><tspan class="cls-21" x="143.52" y="0">– luis </tspan><tspan class="cls-35" x="162.52" y="0">d</tspan><tspan class="cls-21" x="166.1" y="0">.</tspan></text><text class="cls-39" transform="translate(15.89 107.48)">“This is amazing!<tspan class="cls-20" x="175.2" y="0"> </tspan><tspan class="cls-13" x="179.76" y="0">We need more</tspan><tspan class="cls-13"><tspan x="48.77" y="18">of this here abr</tspan><tspan class="cls-18" x="134.08" y="18">o</tspan><tspan class="cls-15" x="140.4" y="18">ad!”</tspan><tspan class="cls-9" x="161.79" y="18"> </tspan><tspan class="cls-21" x="166.35" y="18">– eleanor r.</tspan></tspan></text><text class="cls-7" transform="translate(38.19 31.45)">“Wow!<tspan class="cls-20" x="75.63" y="0"> </tspan><tspan class="cls-13" x="80.19" y="0">Thank </tspan><tspan class="cls-40" x="115.17" y="0">y</tspan><tspan class="cls-13" x="121.26" y="0">ou to the people</tspan><tspan class="cls-13"><tspan x="43.95" y="18">behind thi</tspan><tspan class="cls-41" x="97.61" y="18">s</tspan><tspan x="103.52" y="18">.”</tspan><tspan class="cls-20" x="111.8" y="18"> </tspan><tspan class="cls-21" x="116.37" y="18">– ma</tspan><tspan class="cls-42" x="130.8" y="18">r</tspan><tspan class="cls-21" x="134.32" y="18">y gr</tspan><tspan class="cls-43" x="146.41" y="18">a</tspan><tspan class="cls-31" x="150.07" y="18">ce </tspan><tspan class="cls-35" x="158.25" y="18">d</tspan><tspan class="cls-21" x="161.83" y="18">.</tspan></tspan></text><text class="cls-1" transform="translate(38.52 364.09)">“<tspan class="cls-4" x="9.78" y="0">Inspires</tspan><tspan class="cls-44" x="93.16" y="0" xml:space="preserve"> a l</tspan><tspan class="cls-45" x="112.34" y="0">o</tspan><tspan class="cls-44" x="119.34" y="0">ve for </tspan><tspan class="cls-46" x="158.74" y="0">c</tspan><tspan class="cls-44" x="165.53" y="0">ount</tspan><tspan class="cls-47" x="193.24" y="0">r</tspan><tspan class="cls-44" x="199.91" y="0">y</tspan><tspan class="cls-44"><tspan x="18.85" y="16.96">and </tspan><tspan class="cls-10" x="43.36" y="16.96">a l</tspan><tspan class="cls-48" x="61.35" y="16.96">o</tspan><tspan class="cls-49" x="69.21" y="16.96">ve for who we are</tspan></tspan><tspan class="cls-50"><tspan x="35.13" y="34.96">as a Filipino.”</tspan><tspan class="cls-51" x="125.78" y="34.96"> </tspan><tspan class="cls-52" x="129.14" y="34.96">–</tspan><tspan class="cls-21" x="133.64" y="34.96"> </tspan><tspan class="cls-53" x="135.44" y="34.96">a</tspan><tspan class="cls-54" x="139.33" y="34.96">. m</tspan><tspan class="cls-22" x="148.64" y="34.96">ag</tspan><tspan class="cls-21" x="156.32" y="34.96">adia </tspan></tspan></text><text class="cls-36" transform="translate(0 587.84)">“<tspan class="cls-13" x="11.95" y="0"> </tspan><tspan class="cls-20" x="14.43" y="0">ve</tspan><tspan class="cls-55" x="37.11" y="0">r</tspan><tspan class="cls-20" x="48.66" y="0">y meaningful </tspan><tspan class="cls-56" x="182.28" y="0">&amp;</tspan><tspan class="cls-9" x="191.8" y="0" xml:space="preserve"> touching</tspan><tspan class="cls-13"><tspan x="79.19" y="19">interpre</tspan><tspan class="cls-17" x="125.43" y="19">ta</tspan><tspan x="136.42" y="19">tion</tspan><tspan class="cls-20" x="158.32" y="19"> </tspan><tspan x="162.89" y="19">of wh</tspan><tspan class="cls-17" x="193.05" y="19">a</tspan><tspan x="198.95" y="19">t</tspan><tspan x="58.96" y="38">true Filipino identity i</tspan><tspan class="cls-41" x="176.13" y="38">s</tspan><tspan x="182.03" y="38">.” </tspan><tspan class="cls-21" x="192.8" y="38">–</tspan><tspan class="cls-6" x="197.3" y="38" xml:space="preserve"> brian d.</tspan></tspan></text><text class="cls-57" transform="translate(44.31 694.94)"><tspan class="cls-58">“</tspan><tspan x="13.73" y="0">So beautiful!</tspan><tspan class="cls-13"><tspan x="-2.95" y="18">Salam</tspan><tspan class="cls-59" x="30.14" y="18">a</tspan><tspan class="cls-15" x="36.04" y="18">t po for cre</tspan><tspan class="cls-17" x="98.31" y="18">a</tspan><tspan x="104.22" y="18">ting thi</tspan><tspan class="cls-41" x="144.07" y="18">s</tspan><tspan x="149.98" y="18">.”</tspan><tspan class="cls-20" x="158.26" y="18"> </tspan><tspan class="cls-21" x="162.83" y="18" xml:space="preserve">–  sharon </tspan><tspan class="cls-60" x="193.41" y="18">v</tspan><tspan class="cls-21" x="196.49" y="18">.</tspan></tspan></text><text class="cls-61" transform="translate(50.85 774.01)"><tspan class="cls-62">“</tspan><tspan x="11.27" y="0">Gre</tspan><tspan class="cls-63" x="51.87" y="0">a</tspan><tspan class="cls-64" x="64.78" y="0">t conten</tspan><tspan class="cls-65" x="165.27" y="0">t</tspan><tspan x="175.63" y="0">,</tspan><tspan class="cls-13"><tspan x="3.03" y="18">ve</tspan><tspan class="cls-66" x="15.35" y="18">r</tspan><tspan x="21.62" y="18">y inform</tspan><tspan class="cls-17" x="67.24" y="18">a</tspan><tspan x="73.14" y="18">tive and it portr</tspan><tspan class="cls-67" x="161.17" y="18">a</tspan><tspan class="cls-68" x="166.9" y="18">y</tspan><tspan class="cls-69" x="173.12" y="18">s</tspan><tspan x="23.66" y="36">our histo</tspan><tspan class="cls-66" x="73.17" y="36">r</tspan><tspan x="79.44" y="36">y </tspan><tspan class="cls-70" x="88.25" y="36">amazing</tspan><tspan class="cls-71" x="142.89" y="36">l</tspan><tspan class="cls-72" x="148.43" y="36">y</tspan><tspan class="cls-70" x="154.75" y="36">.</tspan><tspan x="3.48" y="54">So proud to be a Filipin</tspan><tspan class="cls-66" x="123.73" y="54">o</tspan><tspan class="cls-15" x="129.91" y="54">.”</tspan><tspan class="cls-20" x="138.19" y="54"> </tspan><tspan class="cls-21" x="142.76" y="54">– arshein </tspan><tspan class="cls-35" x="173.4" y="54">d</tspan><tspan class="cls-21" x="176.99" y="54">.</tspan></tspan></text><text class="cls-61" transform="translate(50.87 890.51)">“Imma c<tspan class="cls-62" x="89.32" y="0">r</tspan><tspan x="103.04" y="0">y</tspan><tspan class="cls-20" x="116.9" y="0">... </tspan><tspan class="cls-73" x="137.9" y="0">I’m so</tspan><tspan class="cls-73"><tspan x="14.9" y="24">touched right no</tspan><tspan class="cls-74" x="150.19" y="24">w</tspan><tspan x="162.74" y="24">.</tspan></tspan><tspan class="cls-13"><tspan x="8.89" y="41" xml:space="preserve"> I wish more of our kabab</tspan><tspan class="cls-75" x="142.6" y="41">ay</tspan><tspan x="153.88" y="41">ans</tspan><tspan x="32.77" y="58">find this vide</tspan><tspan class="cls-19" x="103.08" y="58">o</tspan><tspan x="109.25" y="58">.”</tspan><tspan class="cls-20" x="117.54" y="58"> </tspan><tspan class="cls-21" x="122.1" y="58">– elsa m.</tspan></tspan></text><text class="cls-1" transform="translate(43.18 1013.47)">“I L<tspan class="cls-76" x="29.92" y="0">O</tspan><tspan x="41.56" y="0">VE this SO much!</tspan><tspan class="cls-13"><tspan x="18.47" y="18">Ve</tspan><tspan class="cls-66" x="30.79" y="18">r</tspan><tspan x="37.06" y="18">y hopeful y&apos;all are making</tspan><tspan x="40.69" y="36">more to highlight our</tspan></tspan><tspan class="cls-27"><tspan x="-1.33" y="54">amazing Filipino heri</tspan><tspan class="cls-77" x="129.42" y="54">t</tspan><tspan class="cls-78" x="135.47" y="54">a</tspan><tspan x="143.18" y="54">ge!!!</tspan><tspan class="cls-13" x="168.41" y="54">”</tspan><tspan class="cls-9" x="173.72" y="54"> </tspan><tspan class="cls-21" x="178.29" y="54">– j</tspan><tspan class="cls-79" x="186.49" y="54">a</tspan><tspan class="cls-21" x="189.71" y="54">y </tspan><tspan class="cls-80" x="194.67" y="54">f</tspan><tspan class="cls-21" x="197.13" y="54">.</tspan></tspan></text><text class="cls-81" transform="translate(53.49 1134.66)">“Ve<tspan class="cls-19" x="37.47" y="0">r</tspan><tspan x="50.79" y="0">y inspiring!</tspan><tspan class="cls-13"><tspan x="-7.55" y="18">e</tspan><tspan class="cls-82" x="-1.66" y="18">x</tspan><tspan x="4.98" y="18">cited for the next episode!”</tspan><tspan class="cls-9" x="152.26" y="18"> </tspan><tspan class="cls-21" x="156.82" y="18">– j</tspan><tspan class="cls-83" x="165.02" y="18">oy</tspan><tspan class="cls-31" x="171.88" y="18">ce </tspan><tspan class="cls-84" x="180.06" y="18">p</tspan><tspan class="cls-31" x="182.73" y="18">.</tspan></tspan></text></g></g></svg>